<?xml version="1.0" encoding="utf-8"?>
<!-- Generator: Adobe Illustrator 25.2.1, SVG Export Plug-In . SVG Version: 6.00 Build 0)  -->
<svg version="1.1" id="Layer_1" xmlns="http://www.w3.org/2000/svg" xmlns:xlink="http://www.w3.org/1999/xlink" x="0px" y="0px"
	 viewBox="0 0 392.6 338.8" style="enable-background:new 0 0 392.6 338.8;" xml:space="preserve">
<style type="text/css">
	.st0{opacity:0.8;fill:url(#SVGID_1_);enable-background:new    ;}
	.st1{fill:#73D7FF;}
	.st2{fill:#493A35;}
	.st3{fill:#C48D5F;}
	.st4{fill:#E867EF;}
	.st5{fill:#B27042;}
	.st6{fill:#F09EF5;}
	.st7{fill:#DB41DF;}
	.st8{fill:#2A4788;}
	.st9{fill:#1AB4FF;}
</style>
<g id="Layer_39">
</g>
<g id="Layer_35">
	
		<linearGradient id="SVGID_1_" gradientUnits="userSpaceOnUse" x1="-90.796" y1="119.3827" x2="319.0507" y2="119.3827" gradientTransform="matrix(-0.9776 0.2107 0.2107 0.9776 285.5839 24.6582)">
		<stop  offset="0" style="stop-color:#FFFED2"/>
		<stop  offset="1" style="stop-color:#D7F9FF"/>
	</linearGradient>
	<path class="st0" d="M95.1,82.4c16-3.6,31.9-3.8,47.1-1.2c24.5,4.2,49.1-7.7,61.3-29.4c13.8-24.7,37.9-43.6,67.9-49.7
		c53.5-11,106.6,23.2,118.7,76.5c6.9,30.6-0.8,61-18.5,84c-10.9,14.2-15.5,32.3-11.8,49.8c0.2,1,0.4,2.1,0.6,3.2
		c5.3,32.8-15.4,64.6-47.6,73.1c-16,4.2-32,2.1-45.5-4.7c-21.2-10.6-46.8-7.8-64.5,8c-15.2,13.6-34.1,23.6-55.5,28.2
		c-66,14.2-131-28-144.7-94.2C-11,161.1,30.5,96.8,95.1,82.4z"/>
</g>
<g id="Layer_1_1_">
</g>
<g id="Layer_7">
</g>
<g id="bg_shape">
</g>
<g id="bg_icons">
</g>
<g id="taxi_behind">
</g>
<g id="circle">
</g>
<g id="Layer_9">
</g>
<g id="bills">
</g>
<g id="wallet">
</g>
<g id="credit_card">
</g>
<g id="coins">
</g>
<g id="Layer_4">
</g>
<g id="Layer_5">
</g>
<g id="plane">
</g>
<g id="megaphone">
</g>
<g id="person_behind">
</g>
<g id="arrow">
	<g>
		
			<ellipse transform="matrix(9.550292e-02 -0.9954 0.9954 9.550292e-02 105.3138 313.3885)" class="st1" cx="225.1" cy="98.7" rx="5.7" ry="5.9"/>
		<path class="st1" d="M210.2,93.1c2.4,0.2,4.2,2.4,4,4.7c-0.2,2.4-2.4,4.1-4.9,3.9s-4.2-2.4-4-4.7
			C205.5,94.6,207.7,92.9,210.2,93.1"/>
		<path class="st1" d="M211.7,120.7c0.8-8.8,6.6-15.5,12.8-14.8c6.2,0.6,10.6,8.2,9.8,17L211.7,120.7z"/>
		<path class="st1" d="M215.2,108c-1.3-2.5-3.4-4.2-5.9-4.4c-4.7-0.5-9.1,4.6-9.7,11.2l11.3,1.1C211.8,112.7,213.3,109.9,215.2,108z
			"/>
		<path class="st1" d="M241.1,96c-2.4-0.2-4.6,1.5-4.9,3.9s1.6,4.5,4,4.7s4.6-1.5,4.9-3.9C245.4,98.3,243.6,96.2,241.1,96"/>
		<path class="st1" d="M233.5,109.6c1.8-2.2,4.2-3.5,6.6-3.3c4.7,0.5,8,6.2,7.4,12.9l-11.3-1.1C236,114.9,235,111.9,233.5,109.6z"/>
	</g>
</g>
<g id="magnifiying_glass">
</g>
<g id="bg_icon">
</g>
<g id="paper">
</g>
<g id="pen">
</g>
<g id="graph">
</g>
<g id="handle">
</g>
<g id="shopping_bag">
</g>
<g id="cart_basket">
</g>
<g id="cart_handle">
</g>
<g id="wheels">
</g>
<g id="boxes">
</g>
<g id="document">
</g>
<g id="shield">
</g>
<g id="doc_lines">
</g>
<g id="safe">
</g>
<g id="people">
	<path class="st2" d="M325.4,200.5c0,0,5.9,1.5,4.7,5.6s-3.5,3.4-2.3,6.4s3.8,1.3,3.8,1.3s-0.7,2.2-2.9,1.4c0,0,4.3,5-2.3,6.1
		s-13-11.9-13-11.9L325.4,200.5z"/>
	<path class="st3" d="M270.4,230.1c4.2,4.1,9.3,6.1,11.6,6.9c1.7,0.6,2.6,0.3,4.2-0.1c0.5-0.2,1-0.5,1.5-0.7l11.3-7.6
		c0.4-0.2,3.2,1.4,3.3,1.8l2,7.6c0.1,0.4-0.3-0.3-0.7-0.1l-15.7,6.2c-2,0.6-4.1,0.5-6.1-0.2c-3-1.1-8.1-4.4-14.5-9.5"/>
	<path class="st4" d="M304.1,331.6c0,0-15.7,3.2-13.9,5.7s20.7,1.2,21-0.6c0.3-1.8-1.2-6-1.2-6L304.1,331.6z"/>
	<path class="st5" d="M309.9,330.7c-1.2,2.4-5.8,0.9-5.8,0.9l-7.2-39c-0.1-0.6,0.4-5.7,1-5.8l13.2-0.3c0,0-3,17-1.4,22.8
		C311.2,315.5,309.9,330.7,309.9,330.7z"/>
	<path class="st6" d="M321.3,331.7c0,0-15.6,3.6-13.8,6c1.9,2.4,22.1,0.7,22.3-1.2c0.3-1.9-1.7-5.8-1.7-5.8L321.3,331.7z"/>
	<path class="st3" d="M328.2,330.7c-1.2,2.4-5.8,0.9-5.8,0.9l-8.4-44.7l13.8,5.7c0,0-1.5,10.9,0.1,16.7
		C329.5,315.5,328.2,330.7,328.2,330.7z"/>
	<path class="st5" d="M283.7,260.4l-22.4,4.5c-1.1,0.3-2.2-0.4-2.5-1.5l-8.1-31.7c-0.3-1.1,0.4-2.2,1.5-2.5l22.2-4.6
		c1.1-0.3,2.2,0.4,2.5,1.5l8.3,31.7C285.5,258.9,284.8,260.1,283.7,260.4z"/>
	<path class="st5" d="M268.9,227l-11.5,2.3c-0.6,0.1-1.1-0.2-1.3-0.8l-0.2-1.2c-0.1-0.6,0.2-1.1,0.8-1.3l11.3-2.3
		c0.6-0.1,1.1,0.2,1.3,0.8l0.4,1.3C269.8,226.3,269.4,226.9,268.9,227z"/>
	<path class="st7" d="M298.6,255.1h24.8l4.6-30.9c0.7-3.7,0.4-6.8-5.7-9.2l-5.8-2.5l-5.4-0.6c0,0-3.7,0.9-8.6,2.6
		c-1.8,1.3-3.4,4.5-4.3,6.5l-2.6,5.3c-0.8,1.8-0.9,3.8-0.3,5.7l2.6,6.5L298.6,255.1z"/>
	<path class="st5" d="M317.3,213.4c-4,3.4-7-0.8-7-0.8l0.7-6.9l7,0.2L317.3,213.4z"/>
	<path class="st3" d="M282.7,247.9c0,0-10.3,1.5-9.6,5.2c0.6,3.1,5.1,3.9,14.3,1.9l0.4-0.1c18.2-4.7,32.7-23,32.7-23l-7.4-5
		c0,0-12.1,17.8-26.6,21.1v-0.1c-0.8-1-1.6-1.9-2.7-2.6c-0.7-0.5-1.4-1-2.1-1.2L282.7,247.9z"/>
	<path class="st4" d="M312.3,226.4l11,7.4l4-6.8c1.5-2.5,1.8-5.8,0.3-8.3c-1-1.7-2.6-3.1-5.6-2.5c-2.3,0.4-4.2,1.9-5.5,3.8
		L312.3,226.4z"/>
	<path class="st5" d="M320.4,214.2c0,0-8.2,6.5-10.4,6.5c-2.2,0-1.6-8.1-1.6-8.1l3-0.9l5.9,1.1L320.4,214.2z"/>
	<path class="st8" d="M298.5,252.6h25.3c0,0,6.1,8.4,5.4,22.6c-0.5,9.3-1.4,17.4-1.4,17.4h-31C296.8,292.6,292.7,273.1,298.5,252.6z
		"/>
	<path class="st3" d="M320,183.3c4.8,1.4,7.3,7.6,5.9,14.3c0.4,0,0.7,0,1.1,0.2c1.1,0.7,1.3,2.5,0.5,4.1c-0.9,1.6-2.5,2.4-3.6,1.7
		c0,0-0.1,0-0.1-0.1c-3.2,3.9-7.3,6.8-12.1,5.4c-5.1-1.5-6.2-8.1-4.7-15.4C308.3,186.1,314.8,181.7,320,183.3z"/>
	<path class="st2" d="M327.5,198.2c-0.7-0.8-1.6-0.7-1.6-0.7l-2.4,2.3c0,0,0.9-6.2,0.9-8.5c-0.1-2.3-1.5-3.5-1.5-3.5
		c-7.2-0.4-10.4-3.1-10.4-3.1s-1.7,1.1-3.2,3.1c0.2-1.3,0.6-5.4,5.1-5.4c0,0,9.9-4.1,13.9,4.2c0,0,3.2,5,0.5,9.6L327.5,198.2z"/>
	<g>
		<path class="st1" d="M263,180.6h25.1l12.6,12.9l-4.3-12.9h2c1.9,0,3.5-1.6,3.5-3.5v-16.8c0-1.9-1.6-3.5-3.5-3.5h-35.5
			c-1.9,0-3.5,1.6-3.5,3.5v16.8C259.5,179,261.1,180.6,263,180.6z"/>
	</g>
	<g>
		<g>
			<path class="st1" d="M326.4,86c-0.5-5,1.4-9.7,5-12.7L315.8,52c-0.7-1-2.3-0.8-2.8,0.3L295.8,91c-0.5,1.2,0.4,2.4,1.7,2.3
				l29.9-3.2C326.9,88.8,326.6,87.4,326.4,86z M318,86c-1.3,0.1-2.5-0.8-2.6-2.1l0,0c-0.1-1.3,0.8-2.5,2.1-2.6
				c1.3-0.1,2.5,0.8,2.6,2.1C320.2,84.7,319.3,85.9,318,86z M318.1,63.8v13.5c0,0.5-0.4,1-0.9,1c-0.5,0.1-1-0.3-1.1-0.8l-2.8-13.2
				c0-0.1,0-0.1,0-0.2c-0.1-1.3,0.8-2.5,2.2-2.7c0.1,0,0.2,0,0.3,0C317,61.4,318.1,62.5,318.1,63.8z"/>
		</g>
		<path class="st1" d="M363.5,100.1l-2-1.6l-8.3-6.7l-0.7-0.5c0.9-1.4,1.5-3.1,1.7-4.7c0.1-0.9,0.2-1.9,0.1-2.9
			c-0.1-1-0.3-2-0.5-2.9c-0.3-1-0.7-1.9-1.2-2.7s-1-1.6-1.7-2.3c-0.6-0.7-1.4-1.3-2.1-1.8c-1.6-1.1-3.3-1.8-5.2-2.1
			c-0.9-0.2-1.9-0.2-2.8-0.2c-1,0-1.9,0.2-2.8,0.4c-0.9,0.3-1.8,0.6-2.6,1.1c-0.8,0.4-1.5,0.9-2.2,1.5s-1.3,1.2-1.8,1.9
			c-1.1,1.3-1.8,2.8-2.3,4.4c-0.2,0.8-0.4,1.6-0.5,2.5c-0.1,0.8-0.2,1.7-0.1,2.5s0.2,1.7,0.5,2.5s0.6,1.7,1,2.4
			c0.6,1.1,1.4,2.2,2.3,3.1s1.9,1.7,3.1,2.2c2.3,1.2,4.9,1.7,7.5,1.4l0,0c1-0.1,2-0.3,2.9-0.6c0.9-0.3,1.8-0.7,2.6-1.2
			c0.7-0.4,1.4-1,2-1.6l0.6,0.6l8.3,6.7l2,1.6c0.8,0.6,1.9,0.5,2.5-0.3C364.3,101.9,364.2,100.8,363.5,100.1L363.5,100.1z
			 M351.4,87.5c-1.6,5.6-7.4,8.8-13,7.2c-1.3-0.4-2.6-1-3.7-1.9c-1.1-0.9-2-2-2.6-3.2c-1.3-2.4-1.6-5.2-0.8-7.8
			c0.4-1.3,1-2.6,1.9-3.7c0.9-1.1,2-2,3.2-2.6c0.6-0.3,1.2-0.6,1.9-0.8c0.6-0.2,1.3-0.3,2-0.4c0.7-0.1,1.3-0.1,2,0s1.3,0.2,2,0.4
			c2.7,0.8,5,2.6,6.3,5.1C351.9,82.1,352.2,84.9,351.4,87.5L351.4,87.5z"/>
	</g>
</g>
<g id="Õ_xBA__x2264__x201E__x5F_1">
</g>
<g id="phone">
</g>
<g id="magnifying_glass">
</g>
<g id="Layer_2_1_">
</g>
<g id="highlighter">
</g>
<g id="icons">
</g>
<g id="Layer_3">
	<g>
		<g>
			<path class="st9" d="M122.4,142.7c36.8,0,66.8,30,66.8,66.8s-30,66.8-66.8,66.8s-66.8-30-66.8-66.8S85.6,142.7,122.4,142.7
				 M122.4,137.7c-39.7,0-71.8,32.2-71.8,71.8c0,39.7,32.2,71.8,71.8,71.8s71.8-32.2,71.8-71.8C194.2,169.8,162.1,137.7,122.4,137.7
				L122.4,137.7z"/>
		</g>
	</g>
	<g>
		<g>
			<path class="st9" d="M87,235.9c-0.3,0-0.5-0.1-0.7-0.4c-5.4-7.6-8.3-16.5-8.3-25.9c0-7.7,2-15.4,5.9-22.1l1.5-2.7l-6.9,3.1
				c-0.1,0.1-0.2,0.1-0.4,0.1c-0.3,0-0.7-0.2-0.8-0.5c-0.1-0.2-0.1-0.5,0-0.7s0.2-0.4,0.5-0.5l9.8-4.4c0.1-0.1,0.2-0.1,0.4-0.1
				c0.2,0,0.3,0,0.5,0.1c0.2,0.2,0.4,0.4,0.4,0.7l0.3,10.3c0,0.5-0.4,0.9-0.9,0.9s-0.9-0.4-0.9-0.9l-0.2-7.7l-1.8,3.1
				c-3.7,6.4-5.6,13.7-5.6,21.2c0,9,2.8,17.6,8,24.9c0.1,0.2,0.2,0.4,0.2,0.6s-0.2,0.4-0.4,0.6C87.3,235.9,87.2,235.9,87,235.9z"/>
			<path class="st9" d="M87.9,180.9c-0.3,0-0.5,0.1-0.8,0.2l-9.8,4.4c-0.5,0.2-0.8,0.6-1,1c-0.2,0.5-0.2,1,0,1.4
				c0.3,0.7,1,1.1,1.7,1.1c0.3,0,0.5-0.1,0.8-0.2l4-1.8c-3.9,6.9-6,14.6-6,22.6c0,9.6,2.9,18.7,8.5,26.5c0.4,0.5,0.9,0.8,1.5,0.8
				c0.4,0,0.8-0.1,1.1-0.4c0.4-0.3,0.7-0.7,0.8-1.2c0.1-0.5,0-1-0.3-1.4c-5.1-7.1-7.8-15.5-7.8-24.3c0-7.3,1.9-14.4,5.5-20.7
				l0.1,4.2c0,1,0.9,1.8,1.9,1.8s1.9-0.9,1.8-1.9l-0.3-10.3c0-0.6-0.3-1.2-0.9-1.5C88.6,181,88.2,180.9,87.9,180.9L87.9,180.9z"/>
		</g>
		<g>
			<path class="st9" d="M139,176.4c-0.5,0-0.9-0.4-0.9-0.9s0.4-0.9,0.9-0.9l7.7-0.2l-3.1-1.8c-6.4-3.7-13.7-5.7-21.1-5.7
				c-9,0-17.6,2.8-24.9,8c-0.2,0.1-0.3,0.2-0.5,0.2H97c-0.2,0-0.4-0.2-0.6-0.4c-0.1-0.2-0.2-0.4-0.2-0.7c0-0.2,0.2-0.4,0.4-0.6
				c7.6-5.4,16.5-8.3,25.8-8.3c7.8,0,15.5,2.1,22.1,5.9l2.7,1.5l-3.1-6.9c-0.2-0.4,0-1,0.4-1.2c0.1,0,0.2-0.1,0.4-0.1
				c0.3,0,0.7,0.2,0.8,0.5l4.4,9.8c0.1,0.3,0.1,0.6-0.1,0.8c-0.2,0.3-0.4,0.4-0.7,0.4L139,176.4z"/>
			<path class="st9" d="M144.9,163.6c-0.3,0-0.5,0.1-0.8,0.2c-0.9,0.4-1.4,1.5-0.9,2.5l1.8,4c-6.8-3.9-14.6-6-22.6-6.1
				c-9.5,0-18.7,2.9-26.4,8.5c-0.4,0.3-0.7,0.7-0.8,1.2c-0.1,0.5,0,1,0.3,1.4s0.7,0.7,1.2,0.8c0.1,0,0.2,0,0.3,0
				c0.4,0,0.8-0.1,1.1-0.4c7.1-5.1,15.5-7.8,24.3-7.8c7.3,0,14.4,1.9,20.7,5.5l-4.2,0.1c-1,0-1.9,0.9-1.8,1.9c0,1,0.8,1.8,1.9,1.8
				l10.3-0.3c0.6,0,1.2-0.3,1.5-0.9c0.3-0.5,0.4-1.2,0.1-1.8l-4.4-9.8l0,0C146.3,164,145.6,163.6,144.9,163.6L144.9,163.6z"/>
		</g>
		<g>
			<path class="st9" d="M156.9,237.4c-0.2,0-0.3,0-0.5-0.1c-0.2-0.2-0.4-0.4-0.4-0.7l-0.3-10.3c0-0.5,0.4-0.9,0.9-0.9
				s0.9,0.4,0.9,0.9l0.2,7.7l1.8-3.1c3.7-6.4,5.6-13.8,5.6-21.2c0-9-2.8-17.6-8-24.9c-0.1-0.2-0.2-0.4-0.2-0.7
				c0-0.2,0.2-0.4,0.4-0.6c0.1-0.1,0.3-0.2,0.5-0.2c0.3,0,0.6,0.1,0.7,0.4c5.5,7.6,8.4,16.5,8.4,25.9c0,7.7-2,15.4-5.9,22.1
				l-1.5,2.7l6.9-3.1c0.1-0.1,0.2-0.1,0.4-0.1c0.3,0,0.6,0.2,0.8,0.5c0.2,0.4,0,1-0.4,1.2l-9.8,4.4
				C157.1,237.3,157,237.4,156.9,237.4z"/>
			<path class="st9" d="M157.7,182.4c-0.4,0-0.8,0.1-1.1,0.4c-0.8,0.6-1,1.8-0.4,2.6c5.1,7.1,7.8,15.5,7.8,24.3
				c0,7.3-1.9,14.4-5.5,20.7l-0.1-4.2c0-1-0.9-1.8-1.9-1.8s-1.9,0.9-1.8,1.9l0.3,10.3c0,0.6,0.3,1.2,0.9,1.5c0.3,0.2,0.6,0.3,1,0.3
				c0.3,0,0.5-0.1,0.8-0.2l9.8-4.4c0.9-0.4,1.4-1.5,0.9-2.5l0,0c-0.3-0.7-1-1.1-1.7-1.1c-0.3,0-0.5,0.1-0.8,0.2l-4,1.8
				c3.9-6.9,6-14.6,6-22.6c0-9.6-3-18.7-8.5-26.5C158.9,182.6,158.3,182.4,157.7,182.4L157.7,182.4z"/>
		</g>
		<g>
			<path class="st9" d="M99.1,254.4c-0.4,0-0.7-0.2-0.8-0.5l-4.2-9.9c-0.1-0.3-0.1-0.6,0.1-0.8c0.2-0.2,0.4-0.4,0.7-0.4l10.3-0.1
				c0.5,0,0.9,0.4,0.9,0.9c0,0.2-0.1,0.5-0.3,0.6c-0.2,0.2-0.4,0.3-0.6,0.3l-7.7,0.1l3.1,1.8c6.4,3.8,13.6,5.9,21,6
				c0.3,0,0.6,0,0.9,0c8.7,0,17-2.6,24.2-7.5c0.1-0.1,0.3-0.2,0.5-0.2c0.1,0,0.1,0,0.2,0c0.2,0,0.4,0.2,0.6,0.4
				c0.3,0.4,0.2,0.9-0.2,1.2c-7.4,5.1-16.2,7.8-25.2,7.8h-0.9c-7.7-0.1-15.3-2.3-21.9-6.3l-2.7-1.6l3,6.9c0.1,0.2,0.1,0.5,0,0.7
				s-0.2,0.4-0.5,0.5C99.3,254.3,99.2,254.4,99.1,254.4z"/>
			<path class="st9" d="M105.2,241.7l-10.3,0.1c-0.6,0-1.2,0.3-1.6,0.9c-0.3,0.5-0.4,1.2-0.1,1.8l4.2,9.9c0.3,0.7,1,1.1,1.7,1.1
				c0.3,0,0.5-0.1,0.7-0.2c0.5-0.2,0.8-0.6,1-1c0.2-0.5,0.2-1,0-1.4l-1.8-4.1c6.8,4.1,14.5,6.3,22.4,6.4h0.9c9.3,0,18.2-2.8,25.8-8
				c0.8-0.6,1.1-1.8,0.5-2.6c-0.3-0.4-0.7-0.7-1.2-0.8c-0.1,0-0.2,0-0.3,0c-0.4,0-0.7,0.1-1.1,0.3c-7,4.8-15.2,7.4-23.6,7.4
				c-0.3,0-0.6,0-0.9,0c-7.3-0.1-14.3-2.2-20.6-5.9h4.2c0.5,0,1-0.2,1.3-0.6c0.4-0.4,0.5-0.8,0.5-1.3
				C107.1,242.5,106.2,241.7,105.2,241.7L105.2,241.7z"/>
		</g>
	</g>
	<g>
		<g>
			<path class="st9" d="M99,223.8c-0.1,0-0.3-0.1-0.3-0.2c-0.1-0.1-0.1-0.3,0-0.4l23.4-40.4c0.1-0.1,0.2-0.1,0.3-0.1
				c0.1,0,0.3,0,0.3,0.1l23.4,40.4c0.1,0.1,0.1,0.3,0,0.4s-0.2,0.2-0.3,0.2H99z M99.6,223.1h45.5l-22.8-39.3L99.6,223.1z"/>
			<path class="st9" d="M122.4,181.8c-0.5,0-0.9,0.2-1.2,0.6l-23.4,40.4c-0.2,0.4-0.2,0.9,0,1.4c0.2,0.4,0.7,0.7,1.2,0.7h46.8
				c0.5,0,0.9-0.3,1.2-0.7c0.2-0.4,0.2-0.9,0-1.4l-23.4-40.4C123.4,182,122.9,181.8,122.4,181.8L122.4,181.8z M101.4,222.1l21-36.3
				l21,36.3H101.4L101.4,222.1z"/>
		</g>
		<g>
			<g>
				<path class="st9" d="M122.4,211.2L122.4,211.2l-1.3-13.2c0-0.4,0.1-0.8,0.4-1.1c0.3-0.3,0.6-0.5,1-0.5s0.8,0.2,1,0.5
					c0.3,0.3,0.4,0.7,0.3,1.1L122.4,211.2L122.4,211.2z"/>
				<path class="st9" d="M122.4,197.5c0.1,0,0.2,0.1,0.3,0.1c0.1,0.1,0.1,0.2,0.1,0.3l-0.4,3.7l-0.4-3.7c0-0.1,0-0.2,0.1-0.3
					C122.2,197.6,122.3,197.5,122.4,197.5 M122.4,195.5c-1.4,0-2.5,1.2-2.4,2.6l1.3,13.2c0.1,0.5,0.5,0.9,1,0.9s1-0.4,1-0.9
					l1.4-13.2C124.9,196.8,123.8,195.5,122.4,195.5L122.4,195.5z"/>
			</g>
			<g>
				<path class="st9" d="M122.4,218.8c-0.7,0-1.3-0.6-1.3-1.3c0-0.7,0.6-1.3,1.3-1.3s1.3,0.6,1.3,1.3
					C123.7,218.2,123.1,218.8,122.4,218.8z"/>
				<path class="st9" d="M122.4,217.1c0.2,0,0.3,0.1,0.3,0.3c0,0.2-0.1,0.3-0.3,0.3s-0.3-0.1-0.3-0.3
					C122.1,217.3,122.2,217.1,122.4,217.1 M122.4,215.1c-1.3,0-2.3,1-2.3,2.3l0,0c0,1.3,1,2.3,2.3,2.3s2.3-1,2.3-2.3l0,0
					C124.7,216.2,123.7,215.1,122.4,215.1L122.4,215.1z"/>
			</g>
		</g>
	</g>
</g>
<g id="icon">
</g>
<g id="airplane">
</g>
<g id="_x2014_ÎÓÈ_x5F_1">
</g>
<path class="st1" d="M215.5,257c-1.3,0.1-2.5-0.8-2.6-2.1l0,0c-0.1-1.3,0.8-2.5,2.1-2.6c1.3-0.1,2.5,0.8,2.6,2.1
	C217.7,255.7,216.8,256.9,215.5,257z"/>
<path class="st1" d="M215.6,234.8v13.5c0,0.5-0.4,1-0.9,1c-0.5,0.1-1-0.3-1.1-0.8l-2.8-13.2c0-0.1,0-0.1,0-0.2
	c-0.1-1.3,0.8-2.5,2.2-2.7c0.1,0,0.2,0,0.3,0C214.5,232.4,215.6,233.5,215.6,234.8z"/>
<path class="st1" d="M339,149.4c-1,0.1-1.9-0.6-2-1.6l0,0c-0.1-1,0.6-1.9,1.6-2s1.9,0.6,2,1.6S340,149.3,339,149.4z"/>
<path class="st1" d="M339,132.2v10.5c0,0.4-0.3,0.8-0.7,0.8c-0.4,0.1-0.8-0.2-0.9-0.6l-2.2-10.2c0-0.1,0-0.1,0-0.2
	c-0.1-1,0.6-1.9,1.7-2.1c0.1,0,0.2,0,0.2,0C338.2,130.3,339,131.2,339,132.2z"/>
<path class="st1" d="M257.1,59c-1,0.1-1.9-0.6-2-1.6l0,0c-0.1-1,0.6-1.9,1.6-2c1-0.1,1.9,0.6,2,1.6S258.1,58.9,257.1,59z"/>
<path class="st1" d="M257.1,41.8v10.5c0,0.4-0.3,0.8-0.7,0.8c-0.4,0.1-0.8-0.2-0.9-0.6l-2.2-10.2c0-0.1,0-0.1,0-0.2
	c-0.1-1,0.6-1.9,1.7-2.1c0.1,0,0.2,0,0.2,0C256.3,39.9,257.1,40.8,257.1,41.8z"/>
</svg>
